{
    "asset" : {
        "generator" : "Khronos glTF Blender I/O v0.9.4",
        "version" : "2.0"
    },
    "scene" : 0,
    "scenes" : [
        {
            "name" : "Scene",
            "nodes" : [
                0
            ]
        }
    ],
    "nodes" : [
        {
            "mesh" : 0,
            "name" : "Accommodation and Food Services"
        }
    ],
    "materials" : [
        {
            "pbrMetallicRoughness" : {
                "baseColorTexture" : {
                    "index" : 0,
                    "texCoord" : 0
                }
            },
            "name" : "Material"
        }
    ],
    "meshes" : [
        {
            "primitives" : [
                {
                    "attributes" : {
                        "NORMAL" : 0,
                        "TEXCOORD_0" : 1,
                        "POSITION" : 2
                    },
                    "indices" : 3,
                    "material" : 0
                }
            ],
            "name" : "Cube.019"
        }
    ],
    "textures" : [
        {
            "source" : 0,
            "sampler" : 0
        }
    ],
    "images" : [
        {
            "mimeType" : "image/png",
            "name" : "texture.png",
            "bufferView" : 4
        }
    ],
    "accessors" : [
        {
            "type" : "VEC3",
            "componentType" : 5126,
            "count" : 287,
            "bufferView" : 0
        },
        {
            "type" : "VEC2",
            "componentType" : 5126,
            "count" : 287,
            "bufferView" : 1
        },
        {
            "type" : "VEC3",
            "min" : [
                -0.5931231379508972,
                -0.542995035648346,
                -0.3176453113555908
            ],
            "bufferView" : 2,
            "componentType" : 5126,
            "max" : [
                0.5781481862068176,
                0.5760677456855774,
                0.3444855809211731
            ],
            "count" : 287
        },
        {
            "type" : "SCALAR",
            "componentType" : 5123,
            "count" : 543,
            "bufferView" : 3
        }
    ],
    "bufferViews" : [
        {
            "byteLength" : 3444,
            "buffer" : 0,
            "byteOffset" : 0
        },
        {
            "byteLength" : 2296,
            "buffer" : 0,
            "byteOffset" : 3444
        },
        {
            "byteLength" : 3444,
            "buffer" : 0,
            "byteOffset" : 5740
        },
        {
            "byteLength" : 1086,
            "buffer" : 0,
            "byteOffset" : 9184
        },
        {
            "byteLength" : 291,
            "buffer" : 0,
            "byteOffset" : 10272
        }
    ],
    "samplers" : [
        {
            "magFilter" : 9729,
            "minFilter" : 9986,
            "wrapS" : 10497,
            "wrapT" : 10497
        }
    ],
    "buffers" : [
        {
            "byteLength" : 10564,
            "uri" : "data:application/octet-stream;base64,"
        }
    ]
}
