{
    "asset" : {
        "version" : "2.0",
        "generator" : "Khronos glTF Blender I/O v0.9.4"
    },
    "scene" : 0,
    "scenes" : [
        {
            "nodes" : [
                0
            ],
            "name" : "Scene"
        }
    ],
    "nodes" : [
        {
            "name" : "Agriculture, Forestry, Fishing, and Hunting",
            "mesh" : 0,
            "scale" : [
                1.3506838083267212,
                1.3506838083267212,
                1.3506838083267212
            ]
        }
    ],
    "materials" : [
        {
            "name" : "Material",
            "pbrMetallicRoughness" : {
                "baseColorTexture" : {
                    "index" : 0,
                    "texCoord" : 0
                }
            }
        }
    ],
    "meshes" : [
        {
            "name" : "Cylinder.004",
            "primitives" : [
                {
                    "indices" : 3,
                    "material" : 0,
                    "attributes" : {
                        "NORMAL" : 0,
                        "TEXCOORD_0" : 1,
                        "POSITION" : 2
                    }
                }
            ]
        }
    ],
    "textures" : [
        {
            "sampler" : 0,
            "source" : 0
        }
    ],
    "images" : [
        {
            "name" : "texture.png",
            "bufferView" : 4,
            "mimeType" : "image/png"
        }
    ],
    "accessors" : [
        {
            "count" : 432,
            "type" : "VEC3",
            "bufferView" : 0,
            "componentType" : 5126
        },
        {
            "count" : 432,
            "type" : "VEC2",
            "bufferView" : 1,
            "componentType" : 5126
        },
        {
            "type" : "VEC3",
            "count" : 432,
            "max" : [
                0.5086656808853149,
                0.5077016949653625,
                0.6562982797622681
            ],
            "min" : [
                -0.6309541463851929,
                -0.4023919105529785,
                -0.5700552463531494
            ],
            "bufferView" : 2,
            "componentType" : 5126
        },
        {
            "count" : 630,
            "type" : "SCALAR",
            "bufferView" : 3,
            "componentType" : 5123
        }
    ],
    "bufferViews" : [
        {
            "byteLength" : 5184,
            "buffer" : 0,
            "byteOffset" : 0
        },
        {
            "byteLength" : 3456,
            "buffer" : 0,
            "byteOffset" : 5184
        },
        {
            "byteLength" : 5184,
            "buffer" : 0,
            "byteOffset" : 8640
        },
        {
            "byteLength" : 1260,
            "buffer" : 0,
            "byteOffset" : 13824
        },
        {
            "byteLength" : 291,
            "buffer" : 0,
            "byteOffset" : 15084
        }
    ],
    "samplers" : [
        {
            "wrapT" : 10497,
            "magFilter" : 9729,
            "minFilter" : 9986,
            "wrapS" : 10497
        }
    ],
    "buffers" : [
        {
            "byteLength" : 15376,
            "uri" : "data:application/octet-stream;base64,"
        }
    ]
}
