{
    "asset" : {
        "version" : "2.0",
        "generator" : "Khronos glTF Blender I/O v0.9.4"
    },
    "scene" : 0,
    "scenes" : [
        {
            "nodes" : [
                0
            ],
            "name" : "Scene"
        }
    ],
    "nodes" : [
        {
            "name" : "Arts, Entertainment, and Recreation",
            "mesh" : 0
        }
    ],
    "materials" : [
        {
            "name" : "Material",
            "pbrMetallicRoughness" : {
                "baseColorTexture" : {
                    "index" : 0,
                    "texCoord" : 0
                }
            }
        }
    ],
    "meshes" : [
        {
            "name" : "Cube.017",
            "primitives" : [
                {
                    "indices" : 3,
                    "material" : 0,
                    "attributes" : {
                        "NORMAL" : 0,
                        "TEXCOORD_0" : 1,
                        "POSITION" : 2
                    }
                }
            ]
        }
    ],
    "textures" : [
        {
            "sampler" : 0,
            "source" : 0
        }
    ],
    "images" : [
        {
            "name" : "texture.png",
            "bufferView" : 4,
            "mimeType" : "image/png"
        }
    ],
    "accessors" : [
        {
            "count" : 264,
            "type" : "VEC3",
            "bufferView" : 0,
            "componentType" : 5126
        },
        {
            "count" : 264,
            "type" : "VEC2",
            "bufferView" : 1,
            "componentType" : 5126
        },
        {
            "type" : "VEC3",
            "count" : 264,
            "max" : [
                0.8818081021308899,
                0.546034574508667,
                0.3768081068992615
            ],
            "min" : [
                -0.8850551247596741,
                -0.5933558940887451,
                -0.3135750889778137
            ],
            "bufferView" : 2,
            "componentType" : 5126
        },
        {
            "count" : 528,
            "type" : "SCALAR",
            "bufferView" : 3,
            "componentType" : 5123
        }
    ],
    "bufferViews" : [
        {
            "byteLength" : 3168,
            "buffer" : 0,
            "byteOffset" : 0
        },
        {
            "byteLength" : 2112,
            "buffer" : 0,
            "byteOffset" : 3168
        },
        {
            "byteLength" : 3168,
            "buffer" : 0,
            "byteOffset" : 5280
        },
        {
            "byteLength" : 1056,
            "buffer" : 0,
            "byteOffset" : 8448
        },
        {
            "byteLength" : 291,
            "buffer" : 0,
            "byteOffset" : 9504
        }
    ],
    "samplers" : [
        {
            "wrapT" : 10497,
            "magFilter" : 9729,
            "minFilter" : 9986,
            "wrapS" : 10497
        }
    ],
    "buffers" : [
        {
            "byteLength" : 9796,
            "uri" : "data:application/octet-stream;base64,"
        }
    ]
}
