{
    "asset" : {
        "generator" : "Khronos glTF Blender I/O v0.9.4",
        "version" : "2.0"
    },
    "scene" : 0,
    "scenes" : [
        {
            "name" : "Scene",
            "nodes" : [
                0
            ]
        }
    ],
    "nodes" : [
        {
            "mesh" : 0,
            "name" : "Construction"
        }
    ],
    "materials" : [
        {
            "pbrMetallicRoughness" : {
                "baseColorTexture" : {
                    "index" : 0,
                    "texCoord" : 0
                }
            },
            "name" : "Material"
        }
    ],
    "meshes" : [
        {
            "primitives" : [
                {
                    "attributes" : {
                        "NORMAL" : 0,
                        "TEXCOORD_0" : 1,
                        "POSITION" : 2
                    },
                    "indices" : 3,
                    "material" : 0
                }
            ],
            "name" : "Cube.015"
        }
    ],
    "textures" : [
        {
            "source" : 0,
            "sampler" : 0
        }
    ],
    "images" : [
        {
            "mimeType" : "image/png",
            "name" : "texture.png",
            "bufferView" : 4
        }
    ],
    "accessors" : [
        {
            "type" : "VEC3",
            "componentType" : 5126,
            "count" : 6108,
            "bufferView" : 0
        },
        {
            "type" : "VEC2",
            "componentType" : 5126,
            "count" : 6108,
            "bufferView" : 1
        },
        {
            "type" : "VEC3",
            "min" : [
                -0.16364532709121704,
                -0.559921383857727,
                -0.7692355513572693
            ],
            "bufferView" : 2,
            "componentType" : 5126,
            "max" : [
                0.22778166830539703,
                0.6825659275054932,
                0.9347928166389465
            ],
            "count" : 6108
        },
        {
            "type" : "SCALAR",
            "componentType" : 5123,
            "count" : 9954,
            "bufferView" : 3
        }
    ],
    "bufferViews" : [
        {
            "byteLength" : 73296,
            "buffer" : 0,
            "byteOffset" : 0
        },
        {
            "byteLength" : 48864,
            "buffer" : 0,
            "byteOffset" : 73296
        },
        {
            "byteLength" : 73296,
            "buffer" : 0,
            "byteOffset" : 122160
        },
        {
            "byteLength" : 19908,
            "buffer" : 0,
            "byteOffset" : 195456
        },
        {
            "byteLength" : 291,
            "buffer" : 0,
            "byteOffset" : 215364
        }
    ],
    "samplers" : [
        {
            "magFilter" : 9729,
            "minFilter" : 9986,
            "wrapS" : 10497,
            "wrapT" : 10497
        }
    ],
    "buffers" : [
        {
            "byteLength" : 215656,
            "uri" : "data:application/octet-stream;base64,"
        }
    ]
}
