{
    "asset" : {
        "generator" : "Khronos glTF Blender I/O v0.9.4",
        "version" : "2.0"
    },
    "scene" : 0,
    "scenes" : [
        {
            "name" : "Scene",
            "nodes" : [
                0
            ]
        }
    ],
    "nodes" : [
        {
            "mesh" : 0,
            "name" : "Educational Services"
        }
    ],
    "materials" : [
        {
            "pbrMetallicRoughness" : {
                "baseColorTexture" : {
                    "index" : 0,
                    "texCoord" : 0
                }
            },
            "name" : "Material"
        }
    ],
    "meshes" : [
        {
            "primitives" : [
                {
                    "attributes" : {
                        "NORMAL" : 0,
                        "TEXCOORD_0" : 1,
                        "POSITION" : 2
                    },
                    "indices" : 3,
                    "material" : 0
                }
            ],
            "name" : "Cube.016"
        }
    ],
    "textures" : [
        {
            "source" : 0,
            "sampler" : 0
        }
    ],
    "images" : [
        {
            "mimeType" : "image/png",
            "name" : "texture.png",
            "bufferView" : 4
        }
    ],
    "accessors" : [
        {
            "type" : "VEC3",
            "componentType" : 5126,
            "count" : 336,
            "bufferView" : 0
        },
        {
            "type" : "VEC2",
            "componentType" : 5126,
            "count" : 336,
            "bufferView" : 1
        },
        {
            "type" : "VEC3",
            "min" : [
                -0.42132455110549927,
                -0.6118168830871582,
                -0.6150426864624023
            ],
            "bufferView" : 2,
            "componentType" : 5126,
            "max" : [
                0.4730450212955475,
                0.5089319944381714,
                0.6795997619628906
            ],
            "count" : 336
        },
        {
            "type" : "SCALAR",
            "componentType" : 5123,
            "count" : 576,
            "bufferView" : 3
        }
    ],
    "bufferViews" : [
        {
            "byteLength" : 4032,
            "buffer" : 0,
            "byteOffset" : 0
        },
        {
            "byteLength" : 2688,
            "buffer" : 0,
            "byteOffset" : 4032
        },
        {
            "byteLength" : 4032,
            "buffer" : 0,
            "byteOffset" : 6720
        },
        {
            "byteLength" : 1152,
            "buffer" : 0,
            "byteOffset" : 10752
        },
        {
            "byteLength" : 291,
            "buffer" : 0,
            "byteOffset" : 11904
        }
    ],
    "samplers" : [
        {
            "magFilter" : 9729,
            "minFilter" : 9986,
            "wrapS" : 10497,
            "wrapT" : 10497
        }
    ],
    "buffers" : [
        {
            "byteLength" : 12196,
            "uri" : "data:application/octet-stream;base64,"
        }
    ]
}
