{
    "asset" : {
        "generator" : "Khronos glTF Blender I/O v0.9.4",
        "version" : "2.0"
    },
    "scene" : 0,
    "scenes" : [
        {
            "name" : "Scene",
            "nodes" : [
                0
            ]
        }
    ],
    "nodes" : [
        {
            "mesh" : 0,
            "scale" : [
                1.1887824535369873,
                1.1887824535369873,
                1.1887824535369873
            ],
            "translation" : [
                0.04161984845995903,
                0,
                0.005202481523156166
            ],
            "name" : "Finance and Insurance"
        }
    ],
    "materials" : [
        {
            "pbrMetallicRoughness" : {
                "baseColorTexture" : {
                    "index" : 0,
                    "texCoord" : 0
                }
            },
            "name" : "Material"
        }
    ],
    "meshes" : [
        {
            "primitives" : [
                {
                    "attributes" : {
                        "NORMAL" : 0,
                        "TEXCOORD_0" : 1,
                        "POSITION" : 2
                    },
                    "indices" : 3,
                    "material" : 0
                }
            ],
            "name" : "Cube.010"
        }
    ],
    "textures" : [
        {
            "source" : 0,
            "sampler" : 0
        }
    ],
    "images" : [
        {
            "mimeType" : "image/png",
            "name" : "texture.png",
            "bufferView" : 4
        }
    ],
    "accessors" : [
        {
            "type" : "VEC3",
            "componentType" : 5126,
            "count" : 738,
            "bufferView" : 0
        },
        {
            "type" : "VEC2",
            "componentType" : 5126,
            "count" : 738,
            "bufferView" : 1
        },
        {
            "type" : "VEC3",
            "min" : [
                -0.578679084777832,
                -0.4126181900501251,
                -0.475749135017395
            ],
            "bufferView" : 2,
            "componentType" : 5126,
            "max" : [
                0.5965407490730286,
                0.23257949948310852,
                0.45339179039001465
            ],
            "count" : 738
        },
        {
            "type" : "SCALAR",
            "componentType" : 5123,
            "count" : 1200,
            "bufferView" : 3
        }
    ],
    "bufferViews" : [
        {
            "byteLength" : 8856,
            "buffer" : 0,
            "byteOffset" : 0
        },
        {
            "byteLength" : 5904,
            "buffer" : 0,
            "byteOffset" : 8856
        },
        {
            "byteLength" : 8856,
            "buffer" : 0,
            "byteOffset" : 14760
        },
        {
            "byteLength" : 2400,
            "buffer" : 0,
            "byteOffset" : 23616
        },
        {
            "byteLength" : 291,
            "buffer" : 0,
            "byteOffset" : 26016
        }
    ],
    "samplers" : [
        {
            "magFilter" : 9729,
            "minFilter" : 9986,
            "wrapS" : 10497,
            "wrapT" : 10497
        }
    ],
    "buffers" : [
        {
            "byteLength" : 26308,
            "uri" : "data:application/octet-stream;base64,"
        }
    ]
}
