{
    "asset" : {
        "generator" : "Khronos glTF Blender I/O v0.9.4",
        "version" : "2.0"
    },
    "scene" : 0,
    "scenes" : [
        {
            "name" : "Scene",
            "nodes" : [
                0
            ]
        }
    ],
    "nodes" : [
        {
            "mesh" : 0,
            "name" : "Government"
        }
    ],
    "materials" : [
        {
            "pbrMetallicRoughness" : {
                "baseColorTexture" : {
                    "index" : 0,
                    "texCoord" : 0
                }
            },
            "name" : "Material"
        }
    ],
    "meshes" : [
        {
            "primitives" : [
                {
                    "attributes" : {
                        "NORMAL" : 0,
                        "TEXCOORD_0" : 1,
                        "POSITION" : 2
                    },
                    "indices" : 3,
                    "material" : 0
                }
            ],
            "name" : "Cube.005"
        }
    ],
    "textures" : [
        {
            "source" : 0,
            "sampler" : 0
        }
    ],
    "images" : [
        {
            "mimeType" : "image/png",
            "name" : "texture.png",
            "bufferView" : 4
        }
    ],
    "accessors" : [
        {
            "type" : "VEC3",
            "componentType" : 5126,
            "count" : 532,
            "bufferView" : 0
        },
        {
            "type" : "VEC2",
            "componentType" : 5126,
            "count" : 532,
            "bufferView" : 1
        },
        {
            "type" : "VEC3",
            "min" : [
                -0.46728354692459106,
                -0.5632061958312988,
                -0.4276668429374695
            ],
            "bufferView" : 2,
            "componentType" : 5126,
            "max" : [
                0.4687943756580353,
                0.5373300313949585,
                0.5082711577415466
            ],
            "count" : 532
        },
        {
            "type" : "SCALAR",
            "componentType" : 5123,
            "count" : 912,
            "bufferView" : 3
        }
    ],
    "bufferViews" : [
        {
            "byteLength" : 6384,
            "buffer" : 0,
            "byteOffset" : 0
        },
        {
            "byteLength" : 4256,
            "buffer" : 0,
            "byteOffset" : 6384
        },
        {
            "byteLength" : 6384,
            "buffer" : 0,
            "byteOffset" : 10640
        },
        {
            "byteLength" : 1824,
            "buffer" : 0,
            "byteOffset" : 17024
        },
        {
            "byteLength" : 291,
            "buffer" : 0,
            "byteOffset" : 18848
        }
    ],
    "samplers" : [
        {
            "magFilter" : 9729,
            "minFilter" : 9986,
            "wrapS" : 10497,
            "wrapT" : 10497
        }
    ],
    "buffers" : [
        {
            "byteLength" : 19140,
            "uri" : "data:application/octet-stream;base64,"
        }
    ]
}
