{
    "asset" : {
        "version" : "2.0",
        "generator" : "Khronos glTF Blender I/O v0.9.4"
    },
    "scene" : 0,
    "scenes" : [
        {
            "nodes" : [
                0
            ],
            "name" : "Scene"
        }
    ],
    "nodes" : [
        {
            "name" : "Health Care and Social Assistance",
            "mesh" : 0
        }
    ],
    "materials" : [
        {
            "name" : "Material",
            "pbrMetallicRoughness" : {
                "baseColorTexture" : {
                    "index" : 0,
                    "texCoord" : 0
                }
            }
        }
    ],
    "meshes" : [
        {
            "name" : "Cube.018",
            "primitives" : [
                {
                    "indices" : 3,
                    "material" : 0,
                    "attributes" : {
                        "NORMAL" : 0,
                        "TEXCOORD_0" : 1,
                        "POSITION" : 2
                    }
                }
            ]
        }
    ],
    "textures" : [
        {
            "sampler" : 0,
            "source" : 0
        }
    ],
    "images" : [
        {
            "name" : "texture.png",
            "bufferView" : 4,
            "mimeType" : "image/png"
        }
    ],
    "accessors" : [
        {
            "count" : 388,
            "type" : "VEC3",
            "bufferView" : 0,
            "componentType" : 5126
        },
        {
            "count" : 388,
            "type" : "VEC2",
            "bufferView" : 1,
            "componentType" : 5126
        },
        {
            "type" : "VEC3",
            "count" : 388,
            "max" : [
                0.5977581739425659,
                0.6091751456260681,
                0.3405877351760864
            ],
            "min" : [
                -0.5798073410987854,
                -0.5635456442832947,
                -0.2225799262523651
            ],
            "bufferView" : 2,
            "componentType" : 5126
        },
        {
            "count" : 846,
            "type" : "SCALAR",
            "bufferView" : 3,
            "componentType" : 5123
        }
    ],
    "bufferViews" : [
        {
            "byteLength" : 4656,
            "buffer" : 0,
            "byteOffset" : 0
        },
        {
            "byteLength" : 3104,
            "buffer" : 0,
            "byteOffset" : 4656
        },
        {
            "byteLength" : 4656,
            "buffer" : 0,
            "byteOffset" : 7760
        },
        {
            "byteLength" : 1692,
            "buffer" : 0,
            "byteOffset" : 12416
        },
        {
            "byteLength" : 291,
            "buffer" : 0,
            "byteOffset" : 14108
        }
    ],
    "samplers" : [
        {
            "wrapT" : 10497,
            "magFilter" : 9729,
            "minFilter" : 9986,
            "wrapS" : 10497
        }
    ],
    "buffers" : [
        {
            "byteLength" : 14400,
            "uri" : "data:application/octet-stream;base64,"
        }
    ]
}
