{
    "asset" : {
        "generator" : "Khronos glTF Blender I/O v0.9.4",
        "version" : "2.0"
    },
    "scene" : 0,
    "scenes" : [
        {
            "name" : "Scene",
            "nodes" : [
                0
            ]
        }
    ],
    "nodes" : [
        {
            "mesh" : 0,
            "name" : "Information"
        }
    ],
    "materials" : [
        {
            "pbrMetallicRoughness" : {
                "baseColorTexture" : {
                    "index" : 0,
                    "texCoord" : 0
                }
            },
            "name" : "Material"
        }
    ],
    "meshes" : [
        {
            "primitives" : [
                {
                    "attributes" : {
                        "NORMAL" : 0,
                        "TEXCOORD_0" : 1,
                        "POSITION" : 2
                    },
                    "indices" : 3,
                    "material" : 0
                }
            ],
            "name" : "Cube.008"
        }
    ],
    "textures" : [
        {
            "source" : 0,
            "sampler" : 0
        }
    ],
    "images" : [
        {
            "mimeType" : "image/png",
            "name" : "texture.png",
            "bufferView" : 4
        }
    ],
    "accessors" : [
        {
            "type" : "VEC3",
            "componentType" : 5126,
            "count" : 202,
            "bufferView" : 0
        },
        {
            "type" : "VEC2",
            "componentType" : 5126,
            "count" : 202,
            "bufferView" : 1
        },
        {
            "type" : "VEC3",
            "min" : [
                -0.5084859132766724,
                -0.5424239039421082,
                -0.5344324111938477
            ],
            "bufferView" : 2,
            "componentType" : 5126,
            "max" : [
                0.5113223791122437,
                0.584762692451477,
                0.6466848850250244
            ],
            "count" : 202
        },
        {
            "type" : "SCALAR",
            "componentType" : 5123,
            "count" : 336,
            "bufferView" : 3
        }
    ],
    "bufferViews" : [
        {
            "byteLength" : 2424,
            "buffer" : 0,
            "byteOffset" : 0
        },
        {
            "byteLength" : 1616,
            "buffer" : 0,
            "byteOffset" : 2424
        },
        {
            "byteLength" : 2424,
            "buffer" : 0,
            "byteOffset" : 4040
        },
        {
            "byteLength" : 672,
            "buffer" : 0,
            "byteOffset" : 6464
        },
        {
            "byteLength" : 291,
            "buffer" : 0,
            "byteOffset" : 7136
        }
    ],
    "samplers" : [
        {
            "magFilter" : 9729,
            "minFilter" : 9986,
            "wrapS" : 10497,
            "wrapT" : 10497
        }
    ],
    "buffers" : [
        {
            "byteLength" : 7428,
            "uri" : "data:application/octet-stream;base64,"
        }
    ]
}
