{
    "asset" : {
        "generator" : "Khronos glTF Blender I/O v0.9.4",
        "version" : "2.0"
    },
    "scene" : 0,
    "scenes" : [
        {
            "name" : "Scene",
            "nodes" : [
                0
            ]
        }
    ],
    "nodes" : [
        {
            "mesh" : 0,
            "name" : "Management of Companies and Enterprises"
        }
    ],
    "materials" : [
        {
            "pbrMetallicRoughness" : {
                "baseColorTexture" : {
                    "index" : 0,
                    "texCoord" : 0
                }
            },
            "name" : "Material"
        }
    ],
    "meshes" : [
        {
            "primitives" : [
                {
                    "attributes" : {
                        "NORMAL" : 0,
                        "TEXCOORD_0" : 1,
                        "POSITION" : 2
                    },
                    "indices" : 3,
                    "material" : 0
                }
            ],
            "name" : "Cube.013"
        }
    ],
    "textures" : [
        {
            "source" : 0,
            "sampler" : 0
        }
    ],
    "images" : [
        {
            "mimeType" : "image/png",
            "name" : "texture.png",
            "bufferView" : 4
        }
    ],
    "accessors" : [
        {
            "type" : "VEC3",
            "componentType" : 5126,
            "count" : 341,
            "bufferView" : 0
        },
        {
            "type" : "VEC2",
            "componentType" : 5126,
            "count" : 341,
            "bufferView" : 1
        },
        {
            "type" : "VEC3",
            "min" : [
                -0.6541551351547241,
                -0.5569038391113281,
                -0.022791162133216858
            ],
            "bufferView" : 2,
            "componentType" : 5126,
            "max" : [
                0.5871782302856445,
                0.6840744018554688,
                0.010965459048748016
            ],
            "count" : 341
        },
        {
            "type" : "SCALAR",
            "componentType" : 5123,
            "count" : 744,
            "bufferView" : 3
        }
    ],
    "bufferViews" : [
        {
            "byteLength" : 4092,
            "buffer" : 0,
            "byteOffset" : 0
        },
        {
            "byteLength" : 2728,
            "buffer" : 0,
            "byteOffset" : 4092
        },
        {
            "byteLength" : 4092,
            "buffer" : 0,
            "byteOffset" : 6820
        },
        {
            "byteLength" : 1488,
            "buffer" : 0,
            "byteOffset" : 10912
        },
        {
            "byteLength" : 291,
            "buffer" : 0,
            "byteOffset" : 12400
        }
    ],
    "samplers" : [
        {
            "magFilter" : 9729,
            "minFilter" : 9986,
            "wrapS" : 10497,
            "wrapT" : 10497
        }
    ],
    "buffers" : [
        {
            "byteLength" : 12692,
            "uri" : "data:application/octet-stream;base64,"
        }
    ]
}
