{
    "asset" : {
        "generator" : "Khronos glTF Blender I/O v0.9.4",
        "version" : "2.0"
    },
    "scene" : 0,
    "scenes" : [
        {
            "name" : "Scene",
            "nodes" : [
                0
            ]
        }
    ],
    "nodes" : [
        {
            "mesh" : 0,
            "scale" : [
                0.8928669691085815,
                0.8928669691085815,
                0.8928669691085815
            ],
            "name" : "Manufacturing"
        }
    ],
    "materials" : [
        {
            "pbrMetallicRoughness" : {
                "baseColorTexture" : {
                    "index" : 0,
                    "texCoord" : 0
                }
            },
            "name" : "Material"
        }
    ],
    "meshes" : [
        {
            "primitives" : [
                {
                    "attributes" : {
                        "NORMAL" : 0,
                        "TEXCOORD_0" : 1,
                        "POSITION" : 2
                    },
                    "indices" : 3,
                    "material" : 0
                }
            ],
            "name" : "Cube.004"
        }
    ],
    "textures" : [
        {
            "source" : 0,
            "sampler" : 0
        }
    ],
    "images" : [
        {
            "mimeType" : "image/png",
            "name" : "texture.png",
            "bufferView" : 4
        }
    ],
    "accessors" : [
        {
            "type" : "VEC3",
            "componentType" : 5126,
            "count" : 847,
            "bufferView" : 0
        },
        {
            "type" : "VEC2",
            "componentType" : 5126,
            "count" : 847,
            "bufferView" : 1
        },
        {
            "type" : "VEC3",
            "min" : [
                -0.6441802978515625,
                -0.5776329636573792,
                -0.45954734086990356
            ],
            "bufferView" : 2,
            "componentType" : 5126,
            "max" : [
                0.5626334547996521,
                0.8161134123802185,
                0.5611004829406738
            ],
            "count" : 847
        },
        {
            "type" : "SCALAR",
            "componentType" : 5123,
            "count" : 1440,
            "bufferView" : 3
        }
    ],
    "bufferViews" : [
        {
            "byteLength" : 10164,
            "buffer" : 0,
            "byteOffset" : 0
        },
        {
            "byteLength" : 6776,
            "buffer" : 0,
            "byteOffset" : 10164
        },
        {
            "byteLength" : 10164,
            "buffer" : 0,
            "byteOffset" : 16940
        },
        {
            "byteLength" : 2880,
            "buffer" : 0,
            "byteOffset" : 27104
        },
        {
            "byteLength" : 291,
            "buffer" : 0,
            "byteOffset" : 29984
        }
    ],
    "samplers" : [
        {
            "magFilter" : 9729,
            "minFilter" : 9986,
            "wrapS" : 10497,
            "wrapT" : 10497
        }
    ],
    "buffers" : [
        {
            "byteLength" : 30276,
            "uri" : "data:application/octet-stream;base64,"
        }
    ]
}
