{
    "asset" : {
        "generator" : "Khronos glTF Blender I/O v0.9.4",
        "version" : "2.0"
    },
    "scene" : 0,
    "scenes" : [
        {
            "name" : "Scene",
            "nodes" : [
                0
            ]
        }
    ],
    "nodes" : [
        {
            "mesh" : 0,
            "name" : "Mining, Quarrying, and Oil and Gas Extraction"
        }
    ],
    "materials" : [
        {
            "pbrMetallicRoughness" : {
                "baseColorTexture" : {
                    "index" : 0,
                    "texCoord" : 0
                }
            },
            "name" : "Material"
        }
    ],
    "meshes" : [
        {
            "primitives" : [
                {
                    "attributes" : {
                        "NORMAL" : 0,
                        "TEXCOORD_0" : 1,
                        "POSITION" : 2
                    },
                    "indices" : 3,
                    "material" : 0
                }
            ],
            "name" : "Cube.009"
        }
    ],
    "textures" : [
        {
            "source" : 0,
            "sampler" : 0
        }
    ],
    "images" : [
        {
            "mimeType" : "image/png",
            "name" : "texture.png",
            "bufferView" : 4
        }
    ],
    "accessors" : [
        {
            "type" : "VEC3",
            "componentType" : 5126,
            "count" : 168,
            "bufferView" : 0
        },
        {
            "type" : "VEC2",
            "componentType" : 5126,
            "count" : 168,
            "bufferView" : 1
        },
        {
            "type" : "VEC3",
            "min" : [
                -0.12114089727401733,
                -0.8038308620452881,
                -0.7107124924659729
            ],
            "bufferView" : 2,
            "componentType" : 5126,
            "max" : [
                0.11754346638917923,
                0.9407588839530945,
                0.8784797787666321
            ],
            "count" : 168
        },
        {
            "type" : "SCALAR",
            "componentType" : 5123,
            "count" : 264,
            "bufferView" : 3
        }
    ],
    "bufferViews" : [
        {
            "byteLength" : 2016,
            "buffer" : 0,
            "byteOffset" : 0
        },
        {
            "byteLength" : 1344,
            "buffer" : 0,
            "byteOffset" : 2016
        },
        {
            "byteLength" : 2016,
            "buffer" : 0,
            "byteOffset" : 3360
        },
        {
            "byteLength" : 528,
            "buffer" : 0,
            "byteOffset" : 5376
        },
        {
            "byteLength" : 291,
            "buffer" : 0,
            "byteOffset" : 5904
        }
    ],
    "samplers" : [
        {
            "magFilter" : 9729,
            "minFilter" : 9986,
            "wrapS" : 10497,
            "wrapT" : 10497
        }
    ],
    "buffers" : [
        {
            "byteLength" : 6196,
            "uri" : "data:application/octet-stream;base64,"
        }
    ]
}
