{
    "asset" : {
        "generator" : "Khronos glTF Blender I/O v0.9.4",
        "version" : "2.0"
    },
    "scene" : 0,
    "scenes" : [
        {
            "name" : "Scene",
            "nodes" : [
                0
            ]
        }
    ],
    "nodes" : [
        {
            "mesh" : 0,
            "name" : "Other Services (Except Public Administration)"
        }
    ],
    "materials" : [
        {
            "pbrMetallicRoughness" : {
                "baseColorTexture" : {
                    "index" : 0,
                    "texCoord" : 0
                }
            },
            "name" : "Material"
        }
    ],
    "meshes" : [
        {
            "primitives" : [
                {
                    "attributes" : {
                        "NORMAL" : 0,
                        "TEXCOORD_0" : 1,
                        "POSITION" : 2
                    },
                    "indices" : 3,
                    "material" : 0
                }
            ],
            "name" : "Cube.011"
        }
    ],
    "textures" : [
        {
            "source" : 0,
            "sampler" : 0
        }
    ],
    "images" : [
        {
            "mimeType" : "image/png",
            "name" : "texture.png",
            "bufferView" : 4
        }
    ],
    "accessors" : [
        {
            "type" : "VEC3",
            "componentType" : 5126,
            "count" : 288,
            "bufferView" : 0
        },
        {
            "type" : "VEC2",
            "componentType" : 5126,
            "count" : 288,
            "bufferView" : 1
        },
        {
            "type" : "VEC3",
            "min" : [
                -0.5658348798751831,
                -0.5646408796310425,
                -0.2948352098464966
            ],
            "bufferView" : 2,
            "componentType" : 5126,
            "max" : [
                0.5661921501159668,
                0.5673861503601074,
                0.3645588457584381
            ],
            "count" : 288
        },
        {
            "type" : "SCALAR",
            "componentType" : 5123,
            "count" : 456,
            "bufferView" : 3
        }
    ],
    "bufferViews" : [
        {
            "byteLength" : 3456,
            "buffer" : 0,
            "byteOffset" : 0
        },
        {
            "byteLength" : 2304,
            "buffer" : 0,
            "byteOffset" : 3456
        },
        {
            "byteLength" : 3456,
            "buffer" : 0,
            "byteOffset" : 5760
        },
        {
            "byteLength" : 912,
            "buffer" : 0,
            "byteOffset" : 9216
        },
        {
            "byteLength" : 291,
            "buffer" : 0,
            "byteOffset" : 10128
        }
    ],
    "samplers" : [
        {
            "magFilter" : 9729,
            "minFilter" : 9986,
            "wrapS" : 10497,
            "wrapT" : 10497
        }
    ],
    "buffers" : [
        {
            "byteLength" : 10420,
            "uri" : "data:application/octet-stream;base64,"
        }
    ]
}
