{
    "asset" : {
        "generator" : "Khronos glTF Blender I/O v0.9.4",
        "version" : "2.0"
    },
    "scene" : 0,
    "scenes" : [
        {
            "name" : "Scene",
            "nodes" : [
                0
            ]
        }
    ],
    "nodes" : [
        {
            "mesh" : 0,
            "name" : "Professional, Scientific, and Technical Services"
        }
    ],
    "materials" : [
        {
            "pbrMetallicRoughness" : {
                "baseColorTexture" : {
                    "index" : 0,
                    "texCoord" : 0
                }
            },
            "name" : "Material"
        }
    ],
    "meshes" : [
        {
            "primitives" : [
                {
                    "attributes" : {
                        "NORMAL" : 0,
                        "TEXCOORD_0" : 1,
                        "POSITION" : 2
                    },
                    "indices" : 3,
                    "material" : 0
                }
            ],
            "name" : "Cylinder.005"
        }
    ],
    "textures" : [
        {
            "source" : 0,
            "sampler" : 0
        }
    ],
    "images" : [
        {
            "mimeType" : "image/png",
            "name" : "texture.png",
            "bufferView" : 4
        }
    ],
    "accessors" : [
        {
            "type" : "VEC3",
            "componentType" : 5126,
            "count" : 528,
            "bufferView" : 0
        },
        {
            "type" : "VEC2",
            "componentType" : 5126,
            "count" : 528,
            "bufferView" : 1
        },
        {
            "type" : "VEC3",
            "min" : [
                -0.26117628812789917,
                -0.5753787159919739,
                -0.4238431751728058
            ],
            "bufferView" : 2,
            "componentType" : 5126,
            "max" : [
                0.3132603168487549,
                0.5856995582580566,
                0.5055471658706665
            ],
            "count" : 528
        },
        {
            "type" : "SCALAR",
            "componentType" : 5123,
            "count" : 816,
            "bufferView" : 3
        }
    ],
    "bufferViews" : [
        {
            "byteLength" : 6336,
            "buffer" : 0,
            "byteOffset" : 0
        },
        {
            "byteLength" : 4224,
            "buffer" : 0,
            "byteOffset" : 6336
        },
        {
            "byteLength" : 6336,
            "buffer" : 0,
            "byteOffset" : 10560
        },
        {
            "byteLength" : 1632,
            "buffer" : 0,
            "byteOffset" : 16896
        },
        {
            "byteLength" : 291,
            "buffer" : 0,
            "byteOffset" : 18528
        }
    ],
    "samplers" : [
        {
            "magFilter" : 9729,
            "minFilter" : 9986,
            "wrapS" : 10497,
            "wrapT" : 10497
        }
    ],
    "buffers" : [
        {
            "byteLength" : 18820,
            "uri" : "data:application/octet-stream;base64,"
        }
    ]
}
