{
    "asset" : {
        "generator" : "Khronos glTF Blender I/O v0.9.4",
        "version" : "2.0"
    },
    "scene" : 0,
    "scenes" : [
        {
            "name" : "Scene",
            "nodes" : [
                0
            ]
        }
    ],
    "nodes" : [
        {
            "mesh" : 0,
            "name" : "Real Estate and Rental and Leasing"
        }
    ],
    "materials" : [
        {
            "pbrMetallicRoughness" : {
                "baseColorTexture" : {
                    "index" : 0,
                    "texCoord" : 0
                }
            },
            "name" : "Material"
        }
    ],
    "meshes" : [
        {
            "primitives" : [
                {
                    "attributes" : {
                        "NORMAL" : 0,
                        "TEXCOORD_0" : 1,
                        "POSITION" : 2
                    },
                    "indices" : 3,
                    "material" : 0
                }
            ],
            "name" : "Cube.006"
        }
    ],
    "textures" : [
        {
            "source" : 0,
            "sampler" : 0
        }
    ],
    "images" : [
        {
            "mimeType" : "image/png",
            "name" : "texture.png",
            "bufferView" : 4
        }
    ],
    "accessors" : [
        {
            "type" : "VEC3",
            "componentType" : 5126,
            "count" : 540,
            "bufferView" : 0
        },
        {
            "type" : "VEC2",
            "componentType" : 5126,
            "count" : 540,
            "bufferView" : 1
        },
        {
            "type" : "VEC3",
            "min" : [
                -0.5724862813949585,
                -0.5688185095787048,
                -0.41529351472854614
            ],
            "bufferView" : 2,
            "componentType" : 5126,
            "max" : [
                0.46357616782188416,
                0.5032516717910767,
                0.46829843521118164
            ],
            "count" : 540
        },
        {
            "type" : "SCALAR",
            "componentType" : 5123,
            "count" : 960,
            "bufferView" : 3
        }
    ],
    "bufferViews" : [
        {
            "byteLength" : 6480,
            "buffer" : 0,
            "byteOffset" : 0
        },
        {
            "byteLength" : 4320,
            "buffer" : 0,
            "byteOffset" : 6480
        },
        {
            "byteLength" : 6480,
            "buffer" : 0,
            "byteOffset" : 10800
        },
        {
            "byteLength" : 1920,
            "buffer" : 0,
            "byteOffset" : 17280
        },
        {
            "byteLength" : 291,
            "buffer" : 0,
            "byteOffset" : 19200
        }
    ],
    "samplers" : [
        {
            "magFilter" : 9729,
            "minFilter" : 9986,
            "wrapS" : 10497,
            "wrapT" : 10497
        }
    ],
    "buffers" : [
        {
            "byteLength" : 19492,
            "uri" : "data:application/octet-stream;base64,"
        }
    ]
}
