{
    "asset" : {
        "generator" : "Khronos glTF Blender I/O v0.9.4",
        "version" : "2.0"
    },
    "scene" : 0,
    "scenes" : [
        {
            "name" : "Scene",
            "nodes" : [
                0
            ]
        }
    ],
    "nodes" : [
        {
            "mesh" : 0,
            "name" : "Retail Trade"
        }
    ],
    "materials" : [
        {
            "pbrMetallicRoughness" : {
                "baseColorTexture" : {
                    "index" : 0,
                    "texCoord" : 0
                }
            },
            "name" : "Material"
        }
    ],
    "meshes" : [
        {
            "primitives" : [
                {
                    "attributes" : {
                        "NORMAL" : 0,
                        "TEXCOORD_0" : 1,
                        "POSITION" : 2
                    },
                    "indices" : 3,
                    "material" : 0
                }
            ],
            "name" : "Cube.014"
        }
    ],
    "textures" : [
        {
            "source" : 0,
            "sampler" : 0
        }
    ],
    "images" : [
        {
            "mimeType" : "image/png",
            "name" : "texture.png",
            "bufferView" : 4
        }
    ],
    "accessors" : [
        {
            "type" : "VEC3",
            "componentType" : 5126,
            "count" : 546,
            "bufferView" : 0
        },
        {
            "type" : "VEC2",
            "componentType" : 5126,
            "count" : 546,
            "bufferView" : 1
        },
        {
            "type" : "VEC3",
            "min" : [
                -0.5935067534446716,
                -0.5199627876281738,
                -0.43345025181770325
            ],
            "bufferView" : 2,
            "componentType" : 5126,
            "max" : [
                0.5664873719215393,
                0.5130807757377625,
                0.49040672183036804
            ],
            "count" : 546
        },
        {
            "type" : "SCALAR",
            "componentType" : 5123,
            "count" : 888,
            "bufferView" : 3
        }
    ],
    "bufferViews" : [
        {
            "byteLength" : 6552,
            "buffer" : 0,
            "byteOffset" : 0
        },
        {
            "byteLength" : 4368,
            "buffer" : 0,
            "byteOffset" : 6552
        },
        {
            "byteLength" : 6552,
            "buffer" : 0,
            "byteOffset" : 10920
        },
        {
            "byteLength" : 1776,
            "buffer" : 0,
            "byteOffset" : 17472
        },
        {
            "byteLength" : 291,
            "buffer" : 0,
            "byteOffset" : 19248
        }
    ],
    "samplers" : [
        {
            "magFilter" : 9729,
            "minFilter" : 9986,
            "wrapS" : 10497,
            "wrapT" : 10497
        }
    ],
    "buffers" : [
        {
            "byteLength" : 19540,
            "uri" : "data:application/octet-stream;base64,"
        }
    ]
}
