{
    "asset" : {
        "generator" : "Khronos glTF Blender I/O v0.9.4",
        "version" : "2.0"
    },
    "scene" : 0,
    "scenes" : [
        {
            "name" : "Scene",
            "nodes" : [
                0
            ]
        }
    ],
    "nodes" : [
        {
            "mesh" : 0,
            "name" : "Transportation and Warehousing"
        }
    ],
    "materials" : [
        {
            "pbrMetallicRoughness" : {
                "baseColorTexture" : {
                    "index" : 0,
                    "texCoord" : 0
                }
            },
            "name" : "Material"
        }
    ],
    "meshes" : [
        {
            "primitives" : [
                {
                    "attributes" : {
                        "NORMAL" : 0,
                        "TEXCOORD_0" : 1,
                        "POSITION" : 2
                    },
                    "indices" : 3,
                    "material" : 0
                }
            ],
            "name" : "Cube.007"
        }
    ],
    "textures" : [
        {
            "source" : 0,
            "sampler" : 0
        }
    ],
    "images" : [
        {
            "mimeType" : "image/png",
            "name" : "texture.png",
            "bufferView" : 4
        }
    ],
    "accessors" : [
        {
            "type" : "VEC3",
            "componentType" : 5126,
            "count" : 558,
            "bufferView" : 0
        },
        {
            "type" : "VEC2",
            "componentType" : 5126,
            "count" : 558,
            "bufferView" : 1
        },
        {
            "type" : "VEC3",
            "min" : [
                -0.3094245493412018,
                -0.5376135110855103,
                -0.6278634667396545
            ],
            "bufferView" : 2,
            "componentType" : 5126,
            "max" : [
                0.3200705647468567,
                0.23265349864959717,
                0.8452857136726379
            ],
            "count" : 558
        },
        {
            "type" : "SCALAR",
            "componentType" : 5123,
            "count" : 936,
            "bufferView" : 3
        }
    ],
    "bufferViews" : [
        {
            "byteLength" : 6696,
            "buffer" : 0,
            "byteOffset" : 0
        },
        {
            "byteLength" : 4464,
            "buffer" : 0,
            "byteOffset" : 6696
        },
        {
            "byteLength" : 6696,
            "buffer" : 0,
            "byteOffset" : 11160
        },
        {
            "byteLength" : 1872,
            "buffer" : 0,
            "byteOffset" : 17856
        },
        {
            "byteLength" : 291,
            "buffer" : 0,
            "byteOffset" : 19728
        }
    ],
    "samplers" : [
        {
            "magFilter" : 9729,
            "minFilter" : 9986,
            "wrapS" : 10497,
            "wrapT" : 10497
        }
    ],
    "buffers" : [
        {
            "byteLength" : 20020,
            "uri" : "data:application/octet-stream;base64,"
        }
    ]
}
