{
    "asset" : {
        "generator" : "Khronos glTF Blender I/O v0.9.4",
        "version" : "2.0"
    },
    "scene" : 0,
    "scenes" : [
        {
            "name" : "Scene",
            "nodes" : [
                0
            ]
        }
    ],
    "nodes" : [
        {
            "mesh" : 0,
            "name" : "Utilities"
        }
    ],
    "materials" : [
        {
            "pbrMetallicRoughness" : {
                "baseColorTexture" : {
                    "index" : 0,
                    "texCoord" : 0
                }
            },
            "name" : "Material"
        }
    ],
    "meshes" : [
        {
            "primitives" : [
                {
                    "attributes" : {
                        "NORMAL" : 0,
                        "TEXCOORD_0" : 1,
                        "POSITION" : 2
                    },
                    "indices" : 3,
                    "material" : 0
                }
            ],
            "name" : "Cylinder.003"
        }
    ],
    "textures" : [
        {
            "source" : 0,
            "sampler" : 0
        }
    ],
    "images" : [
        {
            "mimeType" : "image/png",
            "name" : "texture.png",
            "bufferView" : 4
        }
    ],
    "accessors" : [
        {
            "type" : "VEC3",
            "componentType" : 5126,
            "count" : 320,
            "bufferView" : 0
        },
        {
            "type" : "VEC2",
            "componentType" : 5126,
            "count" : 320,
            "bufferView" : 1
        },
        {
            "type" : "VEC3",
            "min" : [
                -0.46902599930763245,
                -0.5666981935501099,
                -0.42628780007362366
            ],
            "bufferView" : 2,
            "componentType" : 5126,
            "max" : [
                0.3967493176460266,
                0.6862813234329224,
                0.48404085636138916
            ],
            "count" : 320
        },
        {
            "type" : "SCALAR",
            "componentType" : 5123,
            "count" : 372,
            "bufferView" : 3
        }
    ],
    "bufferViews" : [
        {
            "byteLength" : 3840,
            "buffer" : 0,
            "byteOffset" : 0
        },
        {
            "byteLength" : 2560,
            "buffer" : 0,
            "byteOffset" : 3840
        },
        {
            "byteLength" : 3840,
            "buffer" : 0,
            "byteOffset" : 6400
        },
        {
            "byteLength" : 744,
            "buffer" : 0,
            "byteOffset" : 10240
        },
        {
            "byteLength" : 291,
            "buffer" : 0,
            "byteOffset" : 10984
        }
    ],
    "samplers" : [
        {
            "magFilter" : 9729,
            "minFilter" : 9986,
            "wrapS" : 10497,
            "wrapT" : 10497
        }
    ],
    "buffers" : [
        {
            "byteLength" : 11276,
            "uri" : "data:application/octet-stream;base64,"
        }
    ]
}
