{
    "asset" : {
        "generator" : "Khronos glTF Blender I/O v0.9.4",
        "version" : "2.0"
    },
    "scene" : 0,
    "scenes" : [
        {
            "name" : "Scene",
            "nodes" : [
                0
            ]
        }
    ],
    "nodes" : [
        {
            "mesh" : 0,
            "name" : "Wholesale Trade"
        }
    ],
    "materials" : [
        {
            "pbrMetallicRoughness" : {
                "baseColorTexture" : {
                    "index" : 0,
                    "texCoord" : 0
                }
            },
            "name" : "Material"
        }
    ],
    "meshes" : [
        {
            "primitives" : [
                {
                    "attributes" : {
                        "NORMAL" : 0,
                        "TEXCOORD_0" : 1,
                        "POSITION" : 2
                    },
                    "indices" : 3,
                    "material" : 0
                }
            ],
            "name" : "Cube.003"
        }
    ],
    "textures" : [
        {
            "source" : 0,
            "sampler" : 0
        }
    ],
    "images" : [
        {
            "mimeType" : "image/png",
            "name" : "texture.png",
            "bufferView" : 4
        }
    ],
    "accessors" : [
        {
            "type" : "VEC3",
            "componentType" : 5126,
            "count" : 112,
            "bufferView" : 0
        },
        {
            "type" : "VEC2",
            "componentType" : 5126,
            "count" : 112,
            "bufferView" : 1
        },
        {
            "type" : "VEC3",
            "min" : [
                -0.46972566843032837,
                -0.5571465492248535,
                -0.4358851909637451
            ],
            "bufferView" : 2,
            "componentType" : 5126,
            "max" : [
                0.4861777424812317,
                0.39875689148902893,
                0.5200182795524597
            ],
            "count" : 112
        },
        {
            "type" : "SCALAR",
            "componentType" : 5123,
            "count" : 180,
            "bufferView" : 3
        }
    ],
    "bufferViews" : [
        {
            "byteLength" : 1344,
            "buffer" : 0,
            "byteOffset" : 0
        },
        {
            "byteLength" : 896,
            "buffer" : 0,
            "byteOffset" : 1344
        },
        {
            "byteLength" : 1344,
            "buffer" : 0,
            "byteOffset" : 2240
        },
        {
            "byteLength" : 360,
            "buffer" : 0,
            "byteOffset" : 3584
        },
        {
            "byteLength" : 291,
            "buffer" : 0,
            "byteOffset" : 3944
        }
    ],
    "samplers" : [
        {
            "magFilter" : 9729,
            "minFilter" : 9986,
            "wrapS" : 10497,
            "wrapT" : 10497
        }
    ],
    "buffers" : [
        {
            "byteLength" : 4236,
            "uri" : "data:application/octet-stream;base64,"
        }
    ]
}
